<svg width="30" height="29" fill="none" xmlns="http://www.w3.org/2000/svg"><path d="M5.468 28.476l.023.225h18.092l.023-.225 1.267-12.548a5.62 5.62 0 004-5.417c0-3.092-2.552-5.645-5.645-5.645-.642 0-1.249.108-1.85.323a7.699 7.699 0 00-6.755-4.048A7.699 7.699 0 007.866 5.19a5.695 5.695 0 00-7.58 5.364A5.633 5.633 0 004.2 15.926l1.268 12.55zm17.808-14.187l-.192.03-.019.192-.662 6.668H6.67l-.663-6.668-.018-.19-.19-.032-.511-.085c-1.762-.321-3.047-1.885-3.047-3.693 0-2.045 1.686-3.732 3.732-3.732.646 0 1.325.162 1.877.517h0l.008.005.728.428.258.152.104-.28.3-.814v-.001c.82-2.256 2.995-3.775 5.373-3.775 2.38 0 4.555 1.52 5.375 3.734h0l.001.003.3.771.107.274.253-.15.725-.426h.001c.56-.32 1.201-.48 1.845-.48 2.045 0 3.731 1.686 3.731 3.731 0 1.893-1.327 3.455-3.128 3.735 0 0 0 0 0 0l-.556.086zm-1.472 12.499H7.227l-.377-3.653h15.33l-.376 3.653z" fill="#000" stroke="#000" stroke-width=".5"/></svg>