<svg width="29" height="29" fill="none" xmlns="http://www.w3.org/2000/svg"><path d="M14.876.415C7.078.415.752 6.74.752 14.539c0 7.798 6.326 14.124 14.124 14.124 7.798 0 14.125-6.326 14.125-14.124C29 6.741 22.674.415 14.876.415zm0 25.777c-6.415 0-11.652-5.209-11.652-11.653 0-6.444 5.237-11.652 11.652-11.652 6.415 0 11.653 5.237 11.653 11.652 0 6.415-5.238 11.653-11.653 11.653z" fill="#000"/><path d="M16.112 14.039v-6.71c0-.676-.559-1.235-1.235-1.235-.677 0-1.236.559-1.236 1.236v7.21c0 .323.117.647.353.882l5.973 5.973c.236.236.56.353.883.353.324 0 .647-.117.883-.353.47-.47.47-1.265 0-1.765l-5.62-5.591z" fill="#000"/></svg>