<svg width="40" height="30" fill="none" xmlns="http://www.w3.org/2000/svg"><path d="M4.468 9.144C4.532 4.27 8.535.32 13.408.32H26.22a8.686 8.686 0 018.708 8.823l-.01.795H4.458l.01-.795z" fill="#fff"/><path d="M4.468 9.144C4.532 4.27 8.535.32 13.408.32H26.22a8.686 8.686 0 018.708 8.823l-.01.795H4.458l.01-.795z" fill="url(#paint0_linear)"/><path d="M35.032 20.547c-.064 4.873-4.067 8.823-8.94 8.823H13.28a8.686 8.686 0 01-8.708-8.823l.01-.795h30.46l-.01.795z" fill="#fff"/><path d="M35.032 20.547c-.064 4.873-4.067 8.823-8.94 8.823H13.28a8.686 8.686 0 01-8.708-8.823l.01-.795h30.46l-.01.795z" fill="url(#paint1_linear)"/><rect x=".467" y="12.06" width="38.566" height="5.57" rx="2.785" fill="#D70000"/><defs><linearGradient id="paint0_linear" x1="19.814" y1=".321" x2="19.814" y2="9.939" gradientUnits="userSpaceOnUse"><stop stop-color="#fff"/><stop offset="1" stop-color="#fff" stop-opacity="0"/></linearGradient><linearGradient id="paint1_linear" x1="19.686" y1="29.37" x2="19.686" y2="19.752" gradientUnits="userSpaceOnUse"><stop stop-color="#fff"/><stop offset="1" stop-color="#fff" stop-opacity="0"/></linearGradient></defs></svg>